<?xml version="1.0" encoding="iso-8859-1"?>
<!-- Generator: Adobe Illustrator 16.0.0, SVG Export Plug-In . SVG Version: 6.00 Build 0)  -->
<!DOCTYPE svg PUBLIC "-//W3C//DTD SVG 1.1//EN" "http://www.w3.org/Graphics/SVG/1.1/DTD/svg11.dtd">
<svg version="1.1" id="Capa_1" xmlns="http://www.w3.org/2000/svg" xmlns:xlink="http://www.w3.org/1999/xlink" x="0px" y="0px"
	 width="100.27px" height="100.27px" viewBox="0 0 100.27 100.27" style="enable-background:new 0 0 100.27 100.27;"
	 xml:space="preserve">
<g>
	<g>
		<circle cx="27.452" cy="89.518" r="8.062"/>
		<path d="M53.762,81.455c4.456,0,8.062,3.61,8.062,8.062c0,4.455-3.606,8.062-8.062,8.062c-4.452,0-8.062-3.607-8.062-8.062
			C45.699,85.065,49.31,81.455,53.762,81.455z"/>
		<path d="M99.934,5.568c-0.951-2.354-3.627-3.498-5.996-2.539l-16.86,6.813C76.69,10,76.352,10.216,76.03,10.458
			c-1.191,0.603-2.126,1.687-2.427,3.097l-2.416,12.148c-0.342-0.041-0.671-0.109-1.013-0.109H8.699C3.901,25.595,0,29.729,0,34.804
			v0.955L11.211,68.7c1.451,4.935,4.544,8.104,8.985,8.104h43.007c4.165,0,7.629-3.101,8.487-7.221
			c0.144-0.312,0.28-0.64,0.359-0.988L83.61,17.128l13.777-5.571C99.749,10.609,100.885,7.923,99.934,5.568z M66.533,49.115
			L62.68,67.314v0.287H21.402l-0.698-0.954L9.623,34.811h59.751L66.533,49.115z"/>
		<path d="M36.165,61.223c0.696,0.37,1.559,0.106,1.93-0.589c0.368-0.694,0.103-1.557-0.595-1.93
			c-2.751-1.465-4.468-4.315-4.468-7.439c0-4.445,3.461-8.094,7.828-8.395v2.662l0.057,0.051c0.207,0.212,0.546,0.212,0.753,0
			l3.62-3.614c0.207-0.212,0.207-0.547,0-0.76l-3.62-3.614c-0.207-0.212-0.546-0.212-0.753,0l-0.057,0.051v2.358
			c-5.939,0.308-10.684,5.243-10.684,11.259C30.176,55.442,32.475,59.259,36.165,61.223z"/>
		<path d="M47.39,43.223c2.764,1.464,4.475,4.318,4.475,7.439c0,4.445-3.463,8.097-7.828,8.397v-2.665l-0.05-0.052
			c-0.214-0.209-0.554-0.209-0.768,0l-3.612,3.617c-0.207,0.209-0.207,0.548,0,0.757l3.612,3.617c0.214,0.208,0.554,0.208,0.768,0
			l0.05-0.055v-2.358c5.939-0.308,10.684-5.242,10.684-11.259c0-4.175-2.291-7.994-5.981-9.958
			c-0.698-0.373-1.566-0.106-1.939,0.588C46.44,41.987,46.698,42.853,47.39,43.223z"/>
	</g>
</g>
<g>
</g>
<g>
</g>
<g>
</g>
<g>
</g>
<g>
</g>
<g>
</g>
<g>
</g>
<g>
</g>
<g>
</g>
<g>
</g>
<g>
</g>
<g>
</g>
<g>
</g>
<g>
</g>
<g>
</g>
</svg>
